<svg height="480pt" viewBox="0 -16 480 480" width="480pt" xmlns="http://www.w3.org/2000/svg"><path d="m464 376-72 16-56-320 72-16zm0 0" fill="#fdbd40"/><path d="m168 8h96v384h-96zm0 0" fill="#238892"/><path d="m8 120h80v272h-80zm0 0" fill="#238892"/><path d="m8 392h464v48h-464zm0 0" fill="#d3843d"/><path d="m264 120h80v272h-80zm0 0" fill="#e9686a"/><path d="m88 64h80v328h-80zm0 0" fill="#fdbd40"/><path d="m168 72h96v256h-96zm0 0" fill="#cfdfe8"/><path d="m88 328h80v32h-80zm0 0" fill="#e9686a"/><g fill="#fdbd40"><path d="m48 288c-4.417969 0-8-3.582031-8-8v-120c0-4.417969 3.582031-8 8-8s8 3.582031 8 8v120c0 4.417969-3.582031 8-8 8zm0 0"/><path d="m48 336c-4.417969 0-8-3.582031-8-8v-16c0-4.417969 3.582031-8 8-8s8 3.582031 8 8v16c0 4.417969-3.582031 8-8 8zm0 0"/><path d="m264 176h80v72h-80zm0 0"/></g><path d="m232 112h-32c-4.417969 0-8-3.582031-8-8s3.582031-8 8-8h32c4.417969 0 8 3.582031 8 8s-3.582031 8-8 8zm0 0" fill="#238892"/><path d="m232 304h-32c-4.417969 0-8-3.582031-8-8s3.582031-8 8-8h32c4.417969 0 8 3.582031 8 8s-3.582031 8-8 8zm0 0" fill="#238892"/><path d="m472 384h-7.113281l.847656-.183594c4.183594-.929687 6.890625-4.984375 6.144531-9.199218l-56-320c-.382812-2.144532-1.625-4.039063-3.4375-5.246094-1.808594-1.207032-4.035156-1.625-6.160156-1.15625l-72 16c-4.179688.929687-6.890625 4.984375-6.144531 9.199218l6.742187 38.585938h-62.878906v-104c0-4.417969-3.582031-8-8-8h-96c-4.417969 0-8 3.582031-8 8v48h-72c-4.417969 0-8 3.582031-8 8v48h-72c-4.417969 0-8 3.582031-8 8v320c0 4.417969 3.582031 8 8 8h464c4.417969 0 8-3.582031 8-8v-48c0-4.417969-3.582031-8-8-8zm-296 0v-48h80v48zm-80 0v-16h64v16zm0-48h64v16h-64zm80-256h80v240h-80zm160 160h-64v-56h64zm-64 16h64v128h-64zm80-46.167969 30.480469 174.167969h-30.480469zm49.601562-144.230469 53.199219 304.246094-56.359375 12.550782-53.242187-304.246094zm-65.601562 62.398438v40h-64v-40zm-160-112h80v48h-80zm-80 56h64v248h-64zm-80 56h64v256h-64zm448 304h-448v-32h448zm0 0"/><path d="m48 152c-4.417969 0-8 3.582031-8 8v120c0 4.417969 3.582031 8 8 8s8-3.582031 8-8v-120c0-4.417969-3.582031-8-8-8zm0 0"/><path d="m48 304c-4.417969 0-8 3.582031-8 8v16c0 4.417969 3.582031 8 8 8s8-3.582031 8-8v-16c0-4.417969-3.582031-8-8-8zm0 0"/><path d="m232 96h-32c-4.417969 0-8 3.582031-8 8s3.582031 8 8 8h32c4.417969 0 8-3.582031 8-8s-3.582031-8-8-8zm0 0"/><path d="m232 288h-32c-4.417969 0-8 3.582031-8 8s3.582031 8 8 8h32c4.417969 0 8-3.582031 8-8s-3.582031-8-8-8zm0 0"/></svg>