<svg height="512" viewBox="0 0 64 64" width="512" xmlns="http://www.w3.org/2000/svg"><g id="Filled_outline" data-name="Filled outline"><path d="m5 47h52v14h-52z" fill="#7fc99d"/><circle cx="50" cy="54" fill="#e4544f" r="3"/><path d="m39 47h4v14h-4z" fill="#fcec97"/><path d="m31 47h4v14h-4z" fill="#fcec97"/><path d="m9 47h8v14h-8z" fill="#e4544f"/><path d="m9 50h3v2h-3z" fill="#fcec97"/><path d="m9 56h3v2h-3z" fill="#fcec97"/><path d="m61 31v-4h-54v20h54v-4h-50v-12z" fill="#2d75bb"/><path d="m13 31h46a0 0 0 0 1 0 0v12a0 0 0 0 1 0 0h-46a2 2 0 0 1 -2-2v-8a2 2 0 0 1 2-2z" fill="#fcec97"/><path d="m28 34h31v2h-31z" fill="#d3843d"/><path d="m14 38h45v2h-45z" fill="#d3843d"/><path d="m28 37-4-2-4 2v-6h8z" fill="#e4544f"/><path d="m14 34h6v2h-6z" fill="#d3843d"/><path d="m3 15h52v12h-52z" fill="#fcec97"/><path d="m13 3h44v12h-44z" fill="#2d75bb"/><path d="m10 18h45v2h-45z" fill="#d3843d"/><path d="m10 22h45v2h-45z" fill="#d3843d"/><path d="m3 15h4v12h-4z" fill="#7fc99d"/><path d="m19 3h4v12h-4z" fill="#7fc99d"/><path d="m43 3h10v12h-10z" fill="#7fc99d"/><g fill="#fcec97"><path d="m29 6h8v2h-8z"/><path d="m26 10h14v2h-14z"/><path d="m26 50h2v8h-2z"/><path d="m22 50h2v8h-2z"/></g><path d="m50 58a4 4 0 1 0 -4-4 4 4 0 0 0 4 4zm0-6a2 2 0 1 1 -2 2 2 2 0 0 1 2-2z"/><path d="m61 26h-5v-10h1a1 1 0 0 0 1-1v-12a1 1 0 0 0 -1-1h-44a1 1 0 0 0 -1 1v11h-9a1 1 0 0 0 -1 1v12a1 1 0 0 0 1 1h3v18h-1a1 1 0 0 0 -1 1v14a1 1 0 0 0 1 1h52a1 1 0 0 0 1-1v-13h3a1 1 0 0 0 1-1v-4a1 1 0 0 0 -1-1h-1v-10h1a1 1 0 0 0 1-1v-4a1 1 0 0 0 -1-1zm-7-8h-44v2h44v2h-44v2h44v2h-46v-10h46zm-30-4v-10h18v10zm32 0h-2v-10h2zm-4-10v10h-8v-10zm-30 0v10h-2v-10zm-8 0h4v10h-4zm-10 12h2v10h-2zm2 32h2v12h-2zm4 12v-2h2v-2h-2v-4h2v-2h-2v-2h6v12zm20-12v12h-12v-12zm2 12v-12h2v12zm6-12v12h-2v-12zm2 12v-12h2v12zm16 0h-12v-12h12zm-44-19v-8a1 1 0 0 1 1-1h6v2h-5v2h5v1a1 1 0 0 0 1.447.9l3.553-1.782 3.553 1.782a1 1 0 0 0 1.447-.9v-1h29v2h-44v2h44v2h-45a1 1 0 0 1 -1-1zm9-9h6v3.382l-2.553-1.282a1 1 0 0 0 -.894 0l-2.553 1.282zm37 2h-29v-2h29zm2-4h-49a1 1 0 0 0 -1 1v12a1 1 0 0 0 1 1h49v2h-52v-18h52z"/><path d="m29 6h8v2h-8z"/><path d="m26 10h14v2h-14z"/><path d="m26 50h2v8h-2z"/><path d="m22 50h2v8h-2z"/></g></svg>