<svg id="Layer_5" enable-background="new 0 0 64 64" height="512" viewBox="0 0 64 64" width="512" xmlns="http://www.w3.org/2000/svg"><path d="m62 26v28c0 2.21-1.79 4-4 4h-22c0 1.1-.45 2.1-1.17 2.83-.73.72-1.73 1.17-2.83 1.17s-2.1-.45-2.83-1.17c-.72-.73-1.17-1.73-1.17-2.83h-22c-2.21 0-4-1.79-4-4v-28h4v20 8h26 26v-26.27c.15-.09.29-.19.41-.32.37-.36.59-.86.59-1.41z" fill="#ffeaa7"/><path d="m26 18h-20v8 20 8h26v-8-22c0-3.31-2.69-6-6-6z" fill="#e6e9ed"/><path d="m58 27.73v26.27h-26v-8-22c0-3.31 2.69-6 6-6h3.2c.77 1.51 1.88 2.81 3.23 3.81.73.54 1.22 1.32 1.44 2.19h-.87c-.55 0-1.05.22-1.41.59-.37.36-.59.86-.59 1.41 0 1.1.9 2 2 2h1c0 2.21 1.79 4 4 4h2c2.21 0 4-1.79 4-4h1c.36 0 .71-.1 1-.27z" fill="#e6e9ed"/><path d="m10 22h18v12h-18z" fill="#b4dd7f"/><path d="m36 36h18v10h-18z" fill="#ff826e"/><path d="m56 28c0 2.21-1.79 4-4 4h-2c-2.21 0-4-1.79-4-4z" fill="#969faa"/><path d="m58 27.73c-.29.17-.64.27-1 .27h-1-10-1c-1.1 0-2-.9-2-2 0-.55.22-1.05.59-1.41.36-.37.86-.59 1.41-.59h.87 5.13 5.13.87c1.1 0 2 .9 2 2 0 .55-.22 1.05-.59 1.41-.12.13-.26.23-.41.32z" fill="#aab2bd"/><path d="m51 24h-5.13c-.22-.87-.71-1.65-1.44-2.19-1.35-1-2.46-2.3-3.23-3.81-1.01-1.98-1.44-4.3-1.06-6.75.74-4.82 4.75-8.64 9.59-9.18 6.65-.74 12.27 4.44 12.27 10.93 0 3.63-1.76 6.84-4.47 8.84-.72.53-1.19 1.31-1.4 2.16z" fill="#ffeaa7"/><circle cx="51" cy="13" fill="#ff826e" r="3"/><path d="m57.679 23.084c.135-.164.28-.316.447-.439 3.052-2.255 4.874-5.861 4.874-9.645 0-3.41-1.459-6.671-4.002-8.946-2.542-2.273-5.961-3.359-9.376-2.977-5.265.588-9.67 4.802-10.475 10.02-.313 2.028-.103 4.049.553 5.903h-1.7c-2.548 0-4.775 1.373-6 3.413-1.225-2.04-3.452-3.413-6-3.413h-21v8h-4v29c0 2.757 2.243 5 5 5h21.101c.465 2.279 2.484 4 4.899 4s4.435-1.721 4.899-4h21.101c2.757 0 5-2.243 5-5v-29h-3.184c-.34-.952-1.139-1.683-2.137-1.916zm.321 2.916c0 .551-.448 1-1 1h-12c-.552 0-1-.449-1-1s.448-1 1-1h12c.552 0 1 .449 1 1zm-3.184 3c-.414 1.161-1.514 2-2.816 2h-2c-1.302 0-2.402-.839-2.816-2zm-3.816-14c-1.103 0-2-.897-2-2s.897-2 2-2 2 .897 2 2-.897 2-2 2zm-9.876-3.598c.67-4.341 4.337-7.848 8.721-8.338 2.888-.322 5.671.558 7.819 2.48 2.12 1.897 3.336 4.614 3.336 7.456 0 3.199-1.48 6.128-4.062 8.037-.667.492-1.191 1.174-1.525 1.963h-3.413v-6.142c1.721-.447 3-2 3-3.858 0-2.206-1.794-4-4-4s-4 1.794-4 4c0 1.858 1.279 3.411 3 3.858v6.142h-3.419c-.34-.791-.873-1.483-1.556-1.991-2.978-2.223-4.473-5.904-3.901-9.607zm-3.124 7.598h2.618c.801 1.386 1.883 2.62 3.212 3.612.181.135.338.3.482.475-1.322.313-2.312 1.496-2.312 2.913 0 1.654 1.346 3 3 3h.101c.465 2.279 2.484 4 4.899 4h2c2.414 0 4.434-1.721 4.899-4h.101v24h-24v-29c0-2.757 2.243-5 5-5zm-31 0h19c2.757 0 5 2.243 5 5v29h-24zm54 35c0 1.654-1.346 3-3 3h-23v1c0 1.654-1.346 3-3 3s-3-1.346-3-3v-1h-23c-1.654 0-3-1.346-3-3v-27h2v28h26 2 26v-26.78c.366-.33.647-.746.816-1.22h1.184z"/><path d="m9 35h20v-14h-20zm2-12h16v10h-16z"/><path d="m55 35h-20v12h20zm-2 10h-16v-8h16z"/><path d="m9 37h20v2h-20z"/><path d="m9 41h20v2h-20z"/><path d="m9 45h20v2h-20z"/><path d="m35 31h8v2h-8z"/><path d="m35 21h2v2h-2z"/><path d="m35 25h2v2h-2z"/><path d="m23 25h2v2h-2z"/><path d="m19 25h2v2h-2z"/><path d="m15 25h2v2h-2z"/><path d="m45 13c0-1.626.64-3.148 1.802-4.286l-1.4-1.429c-1.549 1.517-2.402 3.547-2.402 5.715 0 .381.027.766.081 1.142l1.98-.284c-.04-.283-.061-.571-.061-.858z"/><path d="m46.802 17.286c-.509-.498-.92-1.075-1.225-1.715l-1.807.859c.406.853.955 1.622 1.631 2.285z"/></svg>