<svg height="512" viewBox="0 0 64 64" width="512" xmlns="http://www.w3.org/2000/svg"><g id="Filled_outline" data-name="Filled outline"><path d="m36 61a4 4 0 0 0 -8 0h-25v-4h22c1-2 3-4 7-4s6 2 7 4h22v4z" fill="#d3843d"/><path d="m3 57h8v4h-8z" fill="#2d75bb"/><path d="m53 57h8v4h-8z" fill="#2d75bb"/><path d="m31 53.044s-5-4.044-26-6.044v10h20a7.036 7.036 0 0 1 6-3.956z" fill="#fcec97"/><path d="m33 53.044s5-4.044 26-6.044v10h-20a7.036 7.036 0 0 0 -6-3.956z" fill="#fcec97"/><path d="m5 52h13v2h-13z" fill="#d3843d"/><path d="m46 52h13v2h-13z" fill="#d3843d"/><path d="m42 52h2v2h-2z" fill="#d3843d"/><path d="m44 26a12 12 0 0 0 -24 0 11.375 11.375 0 0 0 6 10v2h12v-2a11.375 11.375 0 0 0 6-10z" fill="#fcec97"/><path d="m26 38h12v4h-12z" fill="#cdeef6"/><path d="m29 30h2v8h-2z" fill="#2d75bb"/><path d="m33 30h2v8h-2z" fill="#2d75bb"/><path d="m27 29h10v2h-10z" fill="#2d75bb"/><path d="m25 26h-2c0-7.119 5.887-9 9-9v2c-.283 0-7 .117-7 7z" fill="#e4544f"/><path d="m23 28h2v2h-2z" fill="#e4544f"/><path d="m13 24h4v2h-4z" fill="#d3843d"/><path d="m14.5 17.379h2v4.243h-2z" fill="#d3843d" transform="matrix(.707 -.707 .707 .707 -9.249 16.672)"/><path d="m13.379 29.5h4.243v2h-4.243z" fill="#d3843d" transform="matrix(.707 -.707 .707 .707 -17.027 19.893)"/><path d="m47 24h4v2h-4z" fill="#d3843d"/><path d="m46.379 18.5h4.243v2h-4.243z" fill="#d3843d" transform="matrix(.707 -.707 .707 .707 .417 40.006)"/><path d="m47.5 28.379h2v4.243h-2z" fill="#d3843d" transform="matrix(.707 -.707 .707 .707 -7.361 43.228)"/><g fill="#2d75bb"><path d="m61 11a6.006 6.006 0 0 1 -6-6 1 1 0 0 1 2 0 4 4 0 0 0 4 4 1 1 0 0 1 0 2z"/><path d="m61 11a6.006 6.006 0 0 1 -6-6 1 1 0 0 1 2 0 4 4 0 0 0 4 4 1 1 0 0 1 0 2z"/><path d="m51 11a1 1 0 0 1 0-2 4 4 0 0 0 4-4 1 1 0 0 1 2 0 6.006 6.006 0 0 1 -6 6z"/><path d="m56 16a1 1 0 0 1 -1-1 6.006 6.006 0 0 1 6-6 1 1 0 0 1 0 2 4 4 0 0 0 -4 4 1 1 0 0 1 -1 1z"/><path d="m56 16a1 1 0 0 1 -1-1 6.006 6.006 0 0 1 6-6 1 1 0 0 1 0 2 4 4 0 0 0 -4 4 1 1 0 0 1 -1 1z"/><path d="m56 16a1 1 0 0 1 -1-1 4 4 0 0 0 -4-4 1 1 0 0 1 0-2 6.006 6.006 0 0 1 6 6 1 1 0 0 1 -1 1z"/><path d="m15 9a6.006 6.006 0 0 1 -6-6 1 1 0 0 1 2 0 4 4 0 0 0 4 4 1 1 0 0 1 0 2z"/><path d="m15 9a6.006 6.006 0 0 1 -6-6 1 1 0 0 1 2 0 4 4 0 0 0 4 4 1 1 0 0 1 0 2z"/><path d="m5 9a1 1 0 0 1 0-2 4 4 0 0 0 4-4 1 1 0 0 1 2 0 6.006 6.006 0 0 1 -6 6z"/><path d="m10 14a1 1 0 0 1 -1-1 6.006 6.006 0 0 1 6-6 1 1 0 0 1 0 2 4 4 0 0 0 -4 4 1 1 0 0 1 -1 1z"/><path d="m10 14a1 1 0 0 1 -1-1 6.006 6.006 0 0 1 6-6 1 1 0 0 1 0 2 4 4 0 0 0 -4 4 1 1 0 0 1 -1 1z"/><path d="m10 14a1 1 0 0 1 -1-1 4 4 0 0 0 -4-4 1 1 0 0 1 0-2 6.006 6.006 0 0 1 6 6 1 1 0 0 1 -1 1z"/><path d="m26 42h12v4h-12z"/></g><path d="m61 56h-1v-9a1 1 0 0 0 -.327-.74 1.015 1.015 0 0 0 -.768-.26c-18.517 1.764-24.818 5.133-26.215 6.039-.231-.01-.446-.039-.69-.039s-.459.029-.69.043c-1.4-.906-7.7-4.275-26.215-6.039a1 1 0 0 0 -1.095.996v9h-1a1 1 0 0 0 -1 1v4a1 1 0 0 0 1 1h25a1 1 0 0 0 1-1 3 3 0 0 1 6 0 1 1 0 0 0 1 1h25a1 1 0 0 0 1-1v-4a1 1 0 0 0 -1-1zm-3-7.9v3.9h-12v2h12v2h-18.406a7.772 7.772 0 0 0 -3.808-3.307c2.954-1.261 9.419-3.293 22.214-4.593zm-52 5.9h12v-2h-12v-3.9c12.678 1.286 19.193 3.332 22.188 4.6a7.781 7.781 0 0 0 -3.782 3.3h-18.406zm-2 6v-2h6v2zm28-4a5.008 5.008 0 0 0 -4.9 4h-15.1v-2h13a1 1 0 0 0 .895-.553c1.143-2.287 3.197-3.447 6.105-3.447s4.962 1.16 6.1 3.447a1 1 0 0 0 .9.553h13v2h-15.1a5.008 5.008 0 0 0 -4.9-4zm28 4h-6v-2h6z"/><path d="m42 52h2v2h-2z"/><path d="m25 46a1 1 0 0 0 1 1h12a1 1 0 0 0 1-1v-9.437a12.325 12.325 0 0 0 6-10.563 13 13 0 0 0 -26 0 12.325 12.325 0 0 0 6 10.563zm8-15v6h-2v-6zm4 8v2h-10v-2zm0 6h-10v-2h10zm-16-19a11 11 0 0 1 22 0 10.316 10.316 0 0 1 -5.5 9.135 1 1 0 0 0 -.5.865v1h-2v-6h2v-2h-10v2h2v6h-2v-1a1 1 0 0 0 -.5-.865 10.316 10.316 0 0 1 -5.5-9.135z"/><path d="m32 19v-2c-3.113 0-9 1.881-9 9h2c0-6.883 6.717-7 7-7z"/><path d="m23 28h2v2h-2z"/><path d="m13 24h4v2h-4z"/><path d="m14.5 17.379h2v4.243h-2z" transform="matrix(.707 -.707 .707 .707 -9.249 16.672)"/><path d="m13.379 29.5h4.243v2h-4.243z" transform="matrix(.707 -.707 .707 .707 -17.027 19.893)"/><path d="m47 24h4v2h-4z"/><path d="m46.379 18.5h4.243v2h-4.243z" transform="matrix(.707 -.707 .707 .707 .417 40.006)"/><path d="m47.5 28.379h2v4.243h-2z" transform="matrix(.707 -.707 .707 .707 -7.361 43.228)"/><path d="m61 9a4 4 0 0 1 -4-4 1 1 0 0 0 -2 0 4 4 0 0 1 -4 4 1 1 0 0 0 0 2 4 4 0 0 1 4 4 1 1 0 0 0 2 0 4 4 0 0 1 4-4 1 1 0 0 0 0-2zm-5 2.69a6.044 6.044 0 0 0 -1.69-1.69 6.044 6.044 0 0 0 1.69-1.69 6.044 6.044 0 0 0 1.69 1.69 6.044 6.044 0 0 0 -1.69 1.69z"/><path d="m10 2a1 1 0 0 0 -1 1 4 4 0 0 1 -4 4 1 1 0 0 0 0 2 4 4 0 0 1 4 4 1 1 0 0 0 2 0 4 4 0 0 1 4-4 1 1 0 0 0 0-2 4 4 0 0 1 -4-4 1 1 0 0 0 -1-1zm1.69 6a6.044 6.044 0 0 0 -1.69 1.69 6.044 6.044 0 0 0 -1.69-1.69 6.044 6.044 0 0 0 1.69-1.69 6.044 6.044 0 0 0 1.69 1.69z"/></g></svg>